# AST/ASF file generated using VICON BodyLanguage
# -----------------------------------------------
:version 1.10
:name VICON
:units
  mass 1.0
  length 0.45
  angle deg
:documentation
   .ast/.asf automatically generated from VICON data using
   VICON BodyBuilder and BodyLanguage model FoxedUp or BRILLIANT.MOD
:root
   order TX TY TZ RX RY RZ
   axis XYZ
   position 0 0 0  
   orientation 0 0 0 
:bonedata
  begin
     id 1 
     name lhipjoint
     direction 0.606768 -0.715223 0.346827 
     length 2.41543 
     axis 0 0 0  XYZ
  end
  begin
     id 2 
     name lfemur
     direction 0.34202 -0.939693 0  
     length 7.2778  
     axis 0 0 20  XYZ
    dof rx ry rz
    limits (-160.0 20.0)
           (-70.0 70.0)
           (-60.0 70.0)
  end
  begin
     id 3 
     name ltibia
     direction 0.34202 -0.939693 0   
     length 7.61811   
     axis 0 0 20   XYZ
    dof rx
    limits (-10.0 170.0)
  end
  begin
     id 4 
     name lfoot
     direction 0.0823924 -0.226371 0.97055   
     length 2.33618   
     axis -90 7.62852e-016 20   XYZ
    dof rx rz
    limits (-45.0 90.0)
           (-70.0 20.0)
  end
  begin
     id 5 
     name ltoes
     direction 1.53554e-011 -4.21934e-011 1   
     length 1.17015   
     axis -90 7.62852e-016 20   XYZ
    dof rx
    limits (-90.0 20.0)
  end
  begin
     id 6 
     name rhipjoint
     direction -0.6077 -0.714582 0.346516   
     length 2.4176  
     axis 0 0 0  XYZ 
  end
  begin
     id 7 
     name rfemur
     direction -0.34202 -0.939693 0   
     length 7.28127   
     axis 0 0 -20   XYZ
    dof rx ry rz
    limits (-160.0 20.0)
           (-70.0 70.0)
           (-70.0 60.0)
  end
  begin
     id 8 
     name rtibia
     direction -0.34202 -0.939693 0   
     length 7.77648   
     axis 0 0 -20   XYZ
    dof rx
    limits (-10.0 170.0)
 end
 begin
     id 9 
     name rfoot
     direction -0.0809463 -0.222398 0.97159   
     length 2.37533  
     axis -90 -7.62852e-016 -20   XYZ
    dof rx rz
    limits (-45.0 90.0)
           (-20.0 70.0)
  end
  begin
     id 10 
     name rtoes
     direction -1.53568e-011 -4.21714e-011 1   
     length 1.18972   
     axis -90 -7.62852e-016 -20   XYZ
    dof rx
    limits (-90.0 20.0)
  end
  begin
     id 11 
     name lowerback
     direction 0.010968 0.991932 -0.126297   
     length 2.21698   
     axis 0 0 0   XYZ
    dof rx ry rz
    limits (-20.0 45.0)
           (-30.0 30.0)
           (-30.0 30.0)
  end
  begin
     id 12 
     name upperback
     direction 0.0167007 0.997503 -0.0686276   
     length 2.22371   
     axis 0 0 0   XYZ
    dof rx ry rz
    limits (-20.0 45.0)
           (-30.0 30.0)
           (-30.0 30.0)
  end
  begin
     id 13 
     name thorax
     direction 0.0111721 0.999885 -0.0102878   
     length 2.25242   
     axis 0 0 0   XYZ
    dof rx ry rz
    limits (-20.0 45.0)
           (-30.0 30.0)
           (-30.0 30.0)
  end
  begin
     id 14 
     name lowerneck
     direction -0.0120265 0.990428 0.137508   
     length 1.57674   
     axis 0 0 0   XYZ
    dof rx ry rz
    limits (-20.0 45.0)
           (-30.0 30.0)
           (-30.0 30.0)
  end
  begin
     id 15 
     name upperneck
     direction 0.0175669 0.998907 0.0433089   
     length 1.5618   
     axis 0 0 0   XYZ
    dof rx ry rz
    limits (-20.0 45.0)
           (-30.0 30.0)
           (-30.0 30.0)
  end
  begin
     id 16
     name head
     direction 0.00754609 0.99997 0.00185367  
     length 1.60579  
     axis 0 0 0   XYZ
    dof rx ry rz
    limits (-20.0 45.0)
           (-30.0 30.0)
           (-30.0 30.0)
  end
  begin
     id 17 
     name lclavicle
     direction 0.885866 0.429166 -0.176231  
     length 3.44967  
     axis 0 0 0   XYZ
    dof ry rz
    limits (-20.0 10.0)
           (0.0 20.0)
  end
  begin
     id 18 
     name lhumerus
     direction 1 -4.48973e-011 -1.90255e-027   
     length 5.20607   
     axis 180 -30 -90   XYZ
    dof rx ry rz
    limits (-60.0 90.0)
           (-90.0 90.0)
           (-90.0 90.0)
  end
  begin
     id 19
     name lradius
     direction 1 -4.48956e-011 9.87925e-027   
     length 3.39961   
     axis 180 -30 -90   XYZ
    dof rx
    limits (-10.0 170.0)
  end
  begin
     id 20
     name lwrist
     direction 1 -4.48985e-011 1.73247e-026   
     length 1.6998   
     axis -9.60847e-015 90 90   XYZ
    dof ry
    limits (-180.0 0.0)
 end
  begin
     id 21 
     name lhand
     direction 1 -4.48798e-011 3.46119e-026   
     length 0.519693   
     axis -2.21073e-014 90 90   XYZ
    dof rx rz
    limits (-90.0 90.0)
           (-45.0 45.0)
  end
  begin
     id 22 
     name lfingers
     direction 1 -4.48938e-011 6.92797e-026   
     length 0.41899   
     axis -4.42155e-014 90 90   XYZ
    dof rx
    limits (0.0 90.0)
  end
  begin
     id 23
     name lthumb
     direction 0.707107 -6.34952e-011 0.707107   
     length 0.601588   
     axis -90 45 6.0103e-014   XYZ
    dof rx rz
    limits (-45.0 45.0)
           (-45.0 45.0)
  end
  begin
     id 24 
     name rclavicle
     direction -0.866736 0.456792 -0.200276   
     length 3.45032  
     axis 0 0 0   XYZ 
    dof ry rz
    limits (-10.0 20.0)
           (-20.0 0.0)
  end
  begin
     id 25 
     name rhumerus
     direction -1 -4.4897e-011 8.65094e-028  
     length 5.32214   
     axis 180 30 90   XYZ
    dof rx ry rz
    limits (-90.0 60.0)
           (-90.0 90.0)
           (-90.0 90.0)
  end
  begin
     id 26 
     name rradius
     direction -1 -4.48987e-011 1.08427e-026   
     length 3.51208   
     axis 180 30 90   XYZ
    dof rx
    limits (-10.0 170.0)
  end
  begin
     id 27 
     name rwrist
     direction -1 -4.48961e-011 1.73222e-026   
     length 1.75604   
     axis -9.60847e-015 -90 -90   XYZ
    dof ry
    limits (-180.0 0.0)
  end
  begin
     id 28
     name rhand
     direction -1 -4.48895e-011 3.46314e-026   
     length 0.586681   
     axis -2.21073e-014 -90 -90   XYZ
    dof rx rz
    limits (-90.0 90.0)
           (-45.0 45.0)
  end
  begin
     id 29
     name rfingers
     direction -1 -4.48968e-011 6.92916e-026   
     length 0.472997   
     axis -4.42155e-014 -90 -90   XYZ
    dof rx
    limits (0.0 90.0)
  end
  begin
     id 30
     name rthumb
     direction -0.707107 -6.34848e-011 0.707107   
     length 0.679133   
     axis -90 -45 -6.0103e-014   XYZ
    dof rx rz
    limits (-45.0 45.0)
           (-45.0 45.0)
  end
:hierarchy
  begin
    root lhipjoint rhipjoint lowerback
    lhipjoint lfemur
    lfemur ltibia
    ltibia lfoot
    lfoot ltoes
    rhipjoint rfemur
    rfemur rtibia
    rtibia rfoot
    rfoot rtoes
    lowerback upperback
    upperback thorax
    thorax lowerneck lclavicle rclavicle
    lowerneck upperneck
    upperneck head
    lclavicle lhumerus
    lhumerus lradius
    lradius lwrist
    lwrist lhand lthumb
    lhand lfingers
    rclavicle rhumerus
    rhumerus rradius
    rradius rwrist
    rwrist rhand rthumb
    rhand rfingers
  end

#!OML:ASF H:\Dans Jumps\Project 1\Capture day 1\Session 1\subject.ASF
:FULLY-SPECIFIED
:DEGREES
21
root 0.0569352 17.3489 -14.474 9.53434 0.775815 -1.50759
lowerback 4.96711 -0.0347364 0.20649
upperback 6.68872 -0.0923046 1.73126
thorax 4.12905 -0.0826966 1.67497
lowerneck -12.3287 0.566691 -2.45172
upperneck 34.5415 1.09446 1.20544
head 13.7323 0.320028 1.08018
rclavicle -2.48481e-015 -5.96354e-016
rhumerus -19.3467 -13.9227 -81.0544
rradius 27.9007
rwrist 25.7843
rhand -22.1813 -27.9155
rfingers 7.12502
rthumb 4.23367 -57.8532
lclavicle -2.48481e-015 -5.96354e-016
lhumerus -16.559 -1.90186 87.8954
lradius 17.6346
lwrist 9.45631
lhand -27.3823 -3.3804
lfingers 7.12502
lthumb -0.789311 26.5979
rfemur -23.5431 -0.496451 19.088
rtibia 30.9879
rfoot -14.963 -3.38546
rtoes 2.66757
lfemur -21.852 5.5205 -16.7686
ltibia 28.0383
lfoot -12.8451 4.68307
ltoes -8.94917
22
root 0.0661263 17.3596 -14.4672 9.64359 0.689048 -1.60267
lowerback 4.84467 -0.0105729 0.224758
upperback 6.68709 -0.0606978 1.7036
thorax 4.19498 -0.0656487 1.63577
lowerneck -12.3423 0.58355 -2.43255
upperneck 34.8799 1.11007 1.22362
head 13.8863 0.3275 1.09102
rclavicle -1.2921e-015 3.57812e-015
rhumerus -19.4323 -14.2743 -81.1819
rradius 28.0897
rwrist 25.437
rhand -22.5474 -28.1244
rfingers 7.12502
rthumb 3.88019 -58.0688
lclavicle -1.2921e-015 3.57812e-015
lhumerus -16.2999 -1.46499 87.618
lradius 17.4187
lwrist 8.89166
lhand -27.5434 -3.39155
lfingers 7.12502
lthumb -0.944932 26.5861
rfemur -23.5756 -0.348958 19.1526
rtibia 30.8349
rfoot -14.7971 -3.44152
rtoes 2.75437
lfemur -21.8183 5.65894 -16.712
ltibia 27.8085
lfoot -12.7926 4.55984
ltoes -8.85191
23
root 0.075903 17.3727 -14.46 9.76781 0.580983 -1.71015
lowerback 4.71736 0.0223686 0.280352
upperback 6.66788 -0.0165076 1.67171
thorax 4.24483 -0.0404007 1.57116
lowerneck -12.3403 0.599022 -2.40672
upperneck 35.2018 1.12358 1.23543
head 14.0311 0.334327 1.0976
rclavicle -1.59028e-015 7.15625e-015
rhumerus -19.5576 -14.569 -81.3154
rradius 28.2583
rwrist 25.0945
rhand -22.9032 -28.32
rfingers 7.12502
rthumb 3.53659 -58.2704
lclavicle -1.59028e-015 7.15625e-015
lhumerus -16.1063 -1.10937 87.3579
lradius 17.2842
lwrist 8.41751
lhand -27.7013 -3.4257
lfingers 7.12502
lthumb -1.09738 26.5512
rfemur -23.6057 -0.21374 19.2236
rtibia 30.645
rfoot -14.6002 -3.42135
rtoes 2.95295
lfemur -21.76 5.80122 -16.6478
ltibia 27.5167
lfoot -12.7157 4.46032
ltoes -8.71611
24
root 0.0861144 17.3879 -14.4531 9.90237 0.451503 -1.80639
lowerback 4.59244 0.0604607 0.344479
upperback 6.63342 0.0350394 1.63202
thorax 4.27726 -0.010789 1.49369
lowerneck -12.3283 0.616988 -2.3699
upperneck 35.5004 1.14204 1.23379
head 14.1645 0.343231 1.09723
rclavicle -1.09332e-015 -2.98177e-015
rhumerus -19.7153 -14.7832 -81.4533
rradius 28.4044
rwrist 24.7705
rhand -23.2221 -28.4864
rfingers 7.12502
rthumb 3.22858 -58.4417
lclavicle -1.09332e-015 -2.98177e-015
lhumerus -15.9828 -0.854161 87.1198
lradius 17.2393
lwrist 8.09593
lhand -27.8575 -3.47336
lfingers 7.12502
lthumb -1.24825 26.5027
rfemur -23.642 -0.0936325 19.2745
rtibia 30.4414
rfoot -14.3802 -3.32847
rtoes 3.24889
lfemur -21.6751 5.92344 -16.5973
ltibia 27.165
lfoot -12.6099 4.39221
ltoes -8.53472
25
root 0.0965993 17.4047 -14.4467 10.0485 0.302883 -1.87658
lowerback 4.47753 0.0995125 0.401046
upperback 6.57974 0.0884098 1.58111
thorax 4.284 0.0197833 1.40885
lowerneck -12.2974 0.64206 -2.33
upperneck 35.7591 1.17152 1.22593
head 14.2761 0.356885 1.09476
rclavicle -2.38542e-015 -8.74653e-015
rhumerus -19.8937 -14.932 -81.5929
rradius 28.5004
rwrist 24.5133
rhand -23.4997 -28.5593
rfingers 7.12502
rthumb 2.96051 -58.5185
lclavicle -2.38542e-015 -8.74653e-015
lhumerus -15.939 -0.700282 86.9025
lradius 17.28
lwrist 7.97509
lhand -28.0117 -3.67794
lfingers 7.12502
lthumb -1.39725 26.2972
rfemur -23.6975 0.0056813 19.2897
rtibia 30.2441
rfoot -14.1439 -3.16911
rtoes 3.61479
lfemur -21.5694 6.01525 -16.575
ltibia 26.758
lfoot -12.4728 4.35624
ltoes -8.31548
26
root 0.106975 17.4226 -14.441 10.1995 0.147604 -1.91586
lowerback 4.37326 0.134568 0.437372
upperback 6.51603 0.136634 1.52325
thorax 4.27451 0.0470789 1.32822
lowerneck -12.2613 0.673966 -2.28695
upperneck 35.9729 1.21313 1.20861
head 14.3664 0.375349 1.08904
rclavicle -1.2921e-015 -3.77691e-015
rhumerus -20.0779 -15.0008 -81.7328
rradius 28.5628
rwrist 24.3134
rhand -23.6842 -28.5724
rfingers 7.12502
rthumb 2.78234 -58.534
lclavicle -1.2921e-015 -3.77691e-015
lhumerus -15.954 -0.645867 86.7076
lradius 17.4061
lwrist 8.05929
lhand -28.1138 -3.79581
lfingers 7.12502
lthumb -1.49579 26.1787
rfemur -23.7718 0.0781759 19.2663
rtibia 30.0662
rfoot -13.9014 -2.95543
rtoes 4.01949
lfemur -21.4436 6.06675 -16.5827
ltibia 26.3028
lfoot -12.3023 4.34898
ltoes -8.07821
27
root 0.116714 17.441 -14.4362 10.3573 -0.000596222 -1.92754
lowerback 4.27784 0.161634 0.451519
upperback 6.44491 0.174249 1.46259
thorax 4.25261 0.0681672 1.25722
lowerneck -12.2248 0.714042 -2.23604
upperneck 36.1341 1.26919 1.17748
head 14.4326 0.399751 1.0777
rclavicle 2.48481e-015 1.59028e-015
rhumerus -20.2567 -15.0076 -81.8696
rradius 28.591
rwrist 24.1979
rhand -23.7563 -28.5056
rfingers 7.12502
rthumb 2.71276 -58.4681
lclavicle 2.48481e-015 1.59028e-015
lhumerus -16.0127 -0.684454 86.5352
lradius 17.5994
lwrist 8.35324
lhand -28.1662 -3.93777
lfingers 7.12502
lthumb -1.54641 26.0364
rfemur -23.8705 0.125728 19.2113
rtibia 29.9115
rfoot -13.6554 -2.71136
rtoes 4.41566
lfemur -21.3123 6.07551 -16.6146
ltibia 25.8137
lfoot -12.1021 4.36208
ltoes -7.81012
